<?xml version="1.0" encoding="UTF-8"?>
<svg xmlns="http://www.w3.org/2000/svg" viewBox="0 0 2251 2684" role="img">
  <title>Remote door unlock — ESP32-S3 + relay on 12V intercom supply, TP4056 battery failover</title>
  <style>
    .diagram-bg{fill:#161e26}.diagram-wire,.diagram-symbol{fill:none;stroke:#94a3b5;stroke-width:2;stroke-linecap:round;stroke-linejoin:round}.diagram-wire{stroke:#637080;stroke-width:1.5}.diagram-bridge-clear{stroke:#161e26;stroke-width:7;stroke-linecap:round}.diagram-bridge-arc{fill:none;stroke:#637080;stroke-width:1.5;stroke-linecap:round;stroke-linejoin:round}.diagram-fill{fill:#161e26;stroke:#94a3b5;stroke-width:2}.diagram-node{fill:#d4943a}.diagram-net{fill:#232b36;stroke:#364050}.diagram-text{fill:#d4943a;font:700 14px Inter,Arial,sans-serif}.diagram-small{fill:#94a3b5;font:12px Inter,Arial,sans-serif}.diagram-value{fill:#3ab4a8}.thin{stroke-width:1.5}
  </style>
  <rect class="diagram-bg" width="2251" height="2684" rx="8" />
  <polyline class="diagram-wire" points="220,264 220,224" />
  <polyline class="diagram-wire" points="220,376 220,416" />
  <polyline class="diagram-wire" points="600,266 600,226" />
  <polyline class="diagram-wire" points="600,374 600,414" />
  <polyline class="diagram-wire" points="446,140 406,140" />
  <polyline class="diagram-wire" points="554,140 594,140" />
  <polyline class="diagram-wire" points="980,376 980,416" />
  <polyline class="diagram-wire" points="980,264 980,224" />
  <polyline class="diagram-wire" points="980,464 980,424" />
  <polyline class="diagram-wire" points="980,576 980,616" />
  <polyline class="diagram-wire" points="780,700 740,700" />
  <polyline class="diagram-wire" points="900,700 940,700" />
  <polyline class="diagram-wire" points="780,740 740,740" />
  <polyline class="diagram-wire" points="900,740 940,740" />
  <polyline class="diagram-wire" points="780,780 740,780" />
  <polyline class="diagram-wire" points="1306,220 1266,220" />
  <polyline class="diagram-wire" points="1414,220 1454,220" />
  <polyline class="diagram-wire" points="1360,576 1360,616" />
  <polyline class="diagram-wire" points="1360,464 1360,424" />
  <polyline class="diagram-wire" points="1340,664 1340,624" />
  <polyline class="diagram-wire" points="1340,776 1340,816" />
  <polyline class="diagram-wire" points="1160,900 1120,900" />
  <polyline class="diagram-wire" points="1280,900 1320,900" />
  <polyline class="diagram-wire" points="1160,940 1120,940" />
  <polyline class="diagram-wire" points="1280,940 1320,940" />
  <polyline class="diagram-wire" points="1160,980 1120,980" />
  <polyline class="diagram-wire" points="1280,980 1320,980" />
  <polyline class="diagram-wire" points="1740,266 1740,226" />
  <polyline class="diagram-wire" points="1740,374 1740,414" />
  <polyline class="diagram-wire" points="1371,920 1331,920" />
  <polyline class="diagram-wire" points="1469,920 1509,920" />
  <polyline class="diagram-wire" points="1591,520 1551,520" />
  <polyline class="diagram-wire" points="1689,520 1729,520" />
  <polyline class="diagram-wire" points="1720,664 1720,624" />
  <polyline class="diagram-wire" points="1720,776 1720,816" />
  <polyline class="diagram-wire" points="1586,880 1546,880" />
  <polyline class="diagram-wire" points="1694,880 1734,880" />
  <polyline class="diagram-wire" points="1586,920 1546,920" />
  <polyline class="diagram-wire" points="2040,184 2040,144" />
  <polyline class="diagram-wire" points="2040,296 2040,336" />
  <polyline class="diagram-wire" points="2040,384 2040,344" />
  <polyline class="diagram-wire" points="2040,496 2040,536" />
  <polyline class="diagram-wire" points="1860,780 1820,780" />
  <polyline class="diagram-wire" points="2020,780 2060,780" />
  <polyline class="diagram-wire" points="1860,820 1820,820" />
  <polyline class="diagram-wire" points="2020,820 2060,820" />
  <polyline class="diagram-wire" points="1860,860 1820,860" />
  <polyline class="diagram-wire" points="2020,860 2060,860" />
  <polyline class="diagram-wire" points="1860,900 1820,900" />
  <polyline class="diagram-wire" points="1860,1300 1820,1300" />
  <polyline class="diagram-wire" points="2020,1460 2060,1460" />
  <polyline class="diagram-wire" points="1860,1500 1820,1500" />
  <polyline class="diagram-wire" points="1860,1540 1820,1540" />
  <polyline class="diagram-wire" points="2020,1540 2060,1540" />
  <polyline class="diagram-wire" points="1860,1580 1820,1580" />
  <polyline class="diagram-wire" points="1986,620 1946,620" />
  <polyline class="diagram-wire" points="2094,620 2134,620" />
  <polyline class="diagram-wire" points="1840,464 1840,424" />
  <polyline class="diagram-wire" points="1840,576 1840,616" />
  <polyline class="diagram-wire" points="1646,1340 1606,1340" />
  <polyline class="diagram-wire" points="1754,1340 1794,1340" />
  <polyline class="diagram-wire" points="1740,1606 1740,1566" />
  <polyline class="diagram-wire" points="1740,1714 1740,1754" />
  <polyline class="diagram-wire" points="1866,1700 1826,1700" />
  <polyline class="diagram-wire" points="1974,1700 2014,1700" />
  <polyline class="diagram-wire" points="1866,1740 1826,1740" />
  <polyline class="diagram-wire" points="1974,1740 2014,1740" />
  <polyline class="diagram-wire" points="1300,1140 1260,1140" />
  <polyline class="diagram-wire" points="1420,1140 1460,1140" />
  <polyline class="diagram-wire" points="1300,1180 1260,1180" />
  <polyline class="diagram-wire" points="1420,1180 1460,1180" />
  <polyline class="diagram-wire" points="1300,1220 1260,1220" />
  <polyline class="diagram-wire" points="1646,1140 1606,1140" />
  <polyline class="diagram-wire" points="1754,1140 1794,1140" />
  <polyline class="diagram-wire" points="1306,1360 1266,1360" />
  <polyline class="diagram-wire" points="1414,1360 1454,1360" />
  <polyline class="diagram-wire" points="1619,1500 1659,1500" />
  <polyline class="diagram-wire" points="1501,1540 1461,1540" />
  <polyline class="diagram-wire" points="1619,1580 1659,1580" />
  <polyline class="diagram-wire" points="1746,1880 1706,1880" />
  <polyline class="diagram-wire" points="1854,1880 1894,1880" />
  <polyline class="diagram-wire" points="1006,720 966,720" />
  <polyline class="diagram-wire" points="1114,720 1154,720" />
  <polyline class="diagram-wire" points="1280,1520 1240,1520" />
  <polyline class="diagram-wire" points="1400,1520 1440,1520" />
  <polyline class="diagram-wire" points="1280,1560 1240,1560" />
  <polyline class="diagram-wire" points="1400,1560 1440,1560" />
  <polyline class="diagram-wire" points="1506,1740 1466,1740" />
  <polyline class="diagram-wire" points="1614,1740 1654,1740" />
  <polyline class="diagram-wire" points="1526,1900 1486,1900" />
  <polyline class="diagram-wire" points="1634,1900 1674,1900" />
  <polyline class="diagram-wire" points="2060,1846 2060,1806" />
  <polyline class="diagram-wire" points="2060,1954 2060,1994" />
  <polyline class="diagram-wire" points="2040,2064 2040,2024" />
  <polyline class="diagram-wire" points="2040,2176 2040,2216" />
  <polyline class="diagram-wire" points="1886,2300 1846,2300" />
  <polyline class="diagram-wire" points="1994,2300 2034,2300" />
  <polyline class="diagram-wire" points="2060,2426 2060,2386" />
  <polyline class="diagram-wire" points="2060,2534 2060,2574" />
  
  <g><rect class="diagram-net" x="190" y="198" width="60" height="26" rx="13" /><text class="diagram-small" x="220" y="215" text-anchor="middle">VIN12</text></g>
  <g class="diagram-ground" aria-label="Ground"><circle class="diagram-node" cx="220" cy="416" r="4" /><line class="diagram-symbol" x1="220" y1="416" x2="220" y2="432" /><line class="diagram-symbol" x1="202" y1="432" x2="238" y2="432" /><line class="diagram-symbol" x1="208" y1="438" x2="232" y2="438" /><line class="diagram-symbol" x1="214" y1="444" x2="226" y2="444" /></g>
  <g><rect class="diagram-net" x="570" y="200" width="60" height="26" rx="13" /><text class="diagram-small" x="600" y="217" text-anchor="middle">VIN12</text></g>
  <g class="diagram-ground" aria-label="Ground"><circle class="diagram-node" cx="600" cy="414" r="4" /><line class="diagram-symbol" x1="600" y1="414" x2="600" y2="430" /><line class="diagram-symbol" x1="582" y1="430" x2="618" y2="430" /><line class="diagram-symbol" x1="588" y1="436" x2="612" y2="436" /><line class="diagram-symbol" x1="594" y1="442" x2="606" y2="442" /></g>
  <g><rect class="diagram-net" x="346" y="127" width="60" height="26" rx="13" /><text class="diagram-small" x="376" y="144" text-anchor="middle">VIN12</text></g>
  <g><rect class="diagram-net" x="594" y="127" width="68" height="26" rx="13" /><text class="diagram-small" x="628" y="144" text-anchor="middle">VIN12F</text></g>
  <g class="diagram-ground" aria-label="Ground"><circle class="diagram-node" cx="980" cy="416" r="4" /><line class="diagram-symbol" x1="980" y1="416" x2="980" y2="432" /><line class="diagram-symbol" x1="962" y1="432" x2="998" y2="432" /><line class="diagram-symbol" x1="968" y1="438" x2="992" y2="438" /><line class="diagram-symbol" x1="974" y1="444" x2="986" y2="444" /></g>
  <g><rect class="diagram-net" x="946" y="198" width="68" height="26" rx="13" /><text class="diagram-small" x="980" y="215" text-anchor="middle">VIN12F</text></g>
  <g><rect class="diagram-net" x="946" y="398" width="68" height="26" rx="13" /><text class="diagram-small" x="980" y="415" text-anchor="middle">VIN12F</text></g>
  <g class="diagram-ground" aria-label="Ground"><circle class="diagram-node" cx="980" cy="616" r="4" /><line class="diagram-symbol" x1="980" y1="616" x2="980" y2="632" /><line class="diagram-symbol" x1="962" y1="632" x2="998" y2="632" /><line class="diagram-symbol" x1="968" y1="638" x2="992" y2="638" /><line class="diagram-symbol" x1="974" y1="644" x2="986" y2="644" /></g>
  <g><rect class="diagram-net" x="672" y="687" width="68" height="26" rx="13" /><text class="diagram-small" x="706" y="704" text-anchor="middle">VIN12F</text></g>
  <g><rect class="diagram-net" x="940" y="687" width="44" height="26" rx="13" /><text class="diagram-small" x="962" y="704" text-anchor="middle">SW5</text></g>
  <g class="diagram-ground" aria-label="Ground"><circle class="diagram-node" cx="740" cy="740" r="4" /><line class="diagram-symbol" x1="740" y1="740" x2="740" y2="756" /><line class="diagram-symbol" x1="722" y1="756" x2="758" y2="756" /><line class="diagram-symbol" x1="728" y1="762" x2="752" y2="762" /><line class="diagram-symbol" x1="734" y1="768" x2="746" y2="768" /></g>
  <g><rect class="diagram-net" x="940" y="727" width="36" height="26" rx="13" /><text class="diagram-small" x="958" y="744" text-anchor="middle">5V</text></g>
  <g class="diagram-ground" aria-label="Ground"><circle class="diagram-node" cx="740" cy="780" r="4" /><line class="diagram-symbol" x1="740" y1="780" x2="740" y2="796" /><line class="diagram-symbol" x1="722" y1="796" x2="758" y2="796" /><line class="diagram-symbol" x1="728" y1="802" x2="752" y2="802" /><line class="diagram-symbol" x1="734" y1="808" x2="746" y2="808" /></g>
  <g><rect class="diagram-net" x="1222" y="207" width="44" height="26" rx="13" /><text class="diagram-small" x="1244" y="224" text-anchor="middle">SW5</text></g>
  <g><rect class="diagram-net" x="1454" y="207" width="36" height="26" rx="13" /><text class="diagram-small" x="1472" y="224" text-anchor="middle">5V</text></g>
  <g class="diagram-ground" aria-label="Ground"><circle class="diagram-node" cx="1360" cy="616" r="4" /><line class="diagram-symbol" x1="1360" y1="616" x2="1360" y2="632" /><line class="diagram-symbol" x1="1342" y1="632" x2="1378" y2="632" /><line class="diagram-symbol" x1="1348" y1="638" x2="1372" y2="638" /><line class="diagram-symbol" x1="1354" y1="644" x2="1366" y2="644" /></g>
  <g><rect class="diagram-net" x="1338" y="398" width="44" height="26" rx="13" /><text class="diagram-small" x="1360" y="415" text-anchor="middle">SW5</text></g>
  <g><rect class="diagram-net" x="1322" y="598" width="36" height="26" rx="13" /><text class="diagram-small" x="1340" y="615" text-anchor="middle">5V</text></g>
  <g class="diagram-ground" aria-label="Ground"><circle class="diagram-node" cx="1340" cy="816" r="4" /><line class="diagram-symbol" x1="1340" y1="816" x2="1340" y2="832" /><line class="diagram-symbol" x1="1322" y1="832" x2="1358" y2="832" /><line class="diagram-symbol" x1="1328" y1="838" x2="1352" y2="838" /><line class="diagram-symbol" x1="1334" y1="844" x2="1346" y2="844" /></g>
  <g><rect class="diagram-net" x="1084" y="887" width="36" height="26" rx="13" /><text class="diagram-small" x="1102" y="904" text-anchor="middle">5V</text></g>
  <g class="diagram-ground" aria-label="Ground"><circle class="diagram-node" cx="1320" cy="900" r="4" /><line class="diagram-symbol" x1="1320" y1="900" x2="1320" y2="916" /><line class="diagram-symbol" x1="1302" y1="916" x2="1338" y2="916" /><line class="diagram-symbol" x1="1308" y1="922" x2="1332" y2="922" /><line class="diagram-symbol" x1="1314" y1="928" x2="1326" y2="928" /></g>
  <g><rect class="diagram-net" x="1068" y="927" width="52" height="26" rx="13" /><text class="diagram-small" x="1094" y="944" text-anchor="middle">VBAT</text></g>
  <g class="diagram-ground" aria-label="Ground"><circle class="diagram-node" cx="1320" cy="940" r="4" /><line class="diagram-symbol" x1="1320" y1="940" x2="1320" y2="956" /><line class="diagram-symbol" x1="1302" y1="956" x2="1338" y2="956" /><line class="diagram-symbol" x1="1308" y1="962" x2="1332" y2="962" /><line class="diagram-symbol" x1="1314" y1="968" x2="1326" y2="968" /></g>
  <g><rect class="diagram-net" x="1060" y="967" width="60" height="26" rx="13" /><text class="diagram-small" x="1090" y="984" text-anchor="middle">VBOUT</text></g>
  <g class="diagram-ground" aria-label="Ground"><circle class="diagram-node" cx="1320" cy="980" r="4" /><line class="diagram-symbol" x1="1320" y1="980" x2="1320" y2="996" /><line class="diagram-symbol" x1="1302" y1="996" x2="1338" y2="996" /><line class="diagram-symbol" x1="1308" y1="1002" x2="1332" y2="1002" /><line class="diagram-symbol" x1="1314" y1="1008" x2="1326" y2="1008" /></g>
  <g><rect class="diagram-net" x="1714" y="200" width="52" height="26" rx="13" /><text class="diagram-small" x="1740" y="217" text-anchor="middle">VBAT</text></g>
  <g class="diagram-ground" aria-label="Ground"><circle class="diagram-node" cx="1740" cy="414" r="4" /><line class="diagram-symbol" x1="1740" y1="414" x2="1740" y2="430" /><line class="diagram-symbol" x1="1722" y1="430" x2="1758" y2="430" /><line class="diagram-symbol" x1="1728" y1="436" x2="1752" y2="436" /><line class="diagram-symbol" x1="1734" y1="442" x2="1746" y2="442" /></g>
  <g><rect class="diagram-net" x="1295" y="907" width="36" height="26" rx="13" /><text class="diagram-small" x="1313" y="924" text-anchor="middle">5V</text></g>
  <g><rect class="diagram-net" x="1509" y="907" width="52" height="26" rx="13" /><text class="diagram-small" x="1535" y="924" text-anchor="middle">VSYS</text></g>
  <g><rect class="diagram-net" x="1491" y="507" width="60" height="26" rx="13" /><text class="diagram-small" x="1521" y="524" text-anchor="middle">VBOUT</text></g>
  <g><rect class="diagram-net" x="1729" y="507" width="52" height="26" rx="13" /><text class="diagram-small" x="1755" y="524" text-anchor="middle">VSYS</text></g>
  <g><rect class="diagram-net" x="1694" y="598" width="52" height="26" rx="13" /><text class="diagram-small" x="1720" y="615" text-anchor="middle">VSYS</text></g>
  <g class="diagram-ground" aria-label="Ground"><circle class="diagram-node" cx="1720" cy="816" r="4" /><line class="diagram-symbol" x1="1720" y1="816" x2="1720" y2="832" /><line class="diagram-symbol" x1="1702" y1="832" x2="1738" y2="832" /><line class="diagram-symbol" x1="1708" y1="838" x2="1732" y2="838" /><line class="diagram-symbol" x1="1714" y1="844" x2="1726" y2="844" /></g>
  <g><rect class="diagram-net" x="1494" y="867" width="52" height="26" rx="13" /><text class="diagram-small" x="1520" y="884" text-anchor="middle">VSYS</text></g>
  <g class="diagram-ground" aria-label="Ground"><circle class="diagram-node" cx="1734" cy="880" r="4" /><line class="diagram-symbol" x1="1734" y1="880" x2="1734" y2="896" /><line class="diagram-symbol" x1="1716" y1="896" x2="1752" y2="896" /><line class="diagram-symbol" x1="1722" y1="902" x2="1746" y2="902" /><line class="diagram-symbol" x1="1728" y1="908" x2="1740" y2="908" /></g>
  <g><rect class="diagram-net" x="1502" y="907" width="44" height="26" rx="13" /><text class="diagram-small" x="1524" y="924" text-anchor="middle">3V3</text></g>
  <g><rect class="diagram-net" x="2018" y="118" width="44" height="26" rx="13" /><text class="diagram-small" x="2040" y="135" text-anchor="middle">3V3</text></g>
  <g class="diagram-ground" aria-label="Ground"><circle class="diagram-node" cx="2040" cy="336" r="4" /><line class="diagram-symbol" x1="2040" y1="336" x2="2040" y2="352" /><line class="diagram-symbol" x1="2022" y1="352" x2="2058" y2="352" /><line class="diagram-symbol" x1="2028" y1="358" x2="2052" y2="358" /><line class="diagram-symbol" x1="2034" y1="364" x2="2046" y2="364" /></g>
  <g><rect class="diagram-net" x="2018" y="318" width="44" height="26" rx="13" /><text class="diagram-small" x="2040" y="335" text-anchor="middle">3V3</text></g>
  <g class="diagram-ground" aria-label="Ground"><circle class="diagram-node" cx="2040" cy="536" r="4" /><line class="diagram-symbol" x1="2040" y1="536" x2="2040" y2="552" /><line class="diagram-symbol" x1="2022" y1="552" x2="2058" y2="552" /><line class="diagram-symbol" x1="2028" y1="558" x2="2052" y2="558" /><line class="diagram-symbol" x1="2034" y1="564" x2="2046" y2="564" /></g>
  <g class="diagram-ground" aria-label="Ground"><circle class="diagram-node" cx="1820" cy="780" r="4" /><line class="diagram-symbol" x1="1820" y1="780" x2="1820" y2="796" /><line class="diagram-symbol" x1="1802" y1="796" x2="1838" y2="796" /><line class="diagram-symbol" x1="1808" y1="802" x2="1832" y2="802" /><line class="diagram-symbol" x1="1814" y1="808" x2="1826" y2="808" /></g>
  <g><rect class="diagram-net" x="2060" y="767" width="44" height="26" rx="13" /><text class="diagram-small" x="2082" y="784" text-anchor="middle">3V3</text></g>
  <g><rect class="diagram-net" x="1784" y="807" width="36" height="26" rx="13" /><text class="diagram-small" x="1802" y="824" text-anchor="middle">EN</text></g>
  <g><rect class="diagram-net" x="2060" y="807" width="68" height="26" rx="13" /><text class="diagram-small" x="2094" y="824" text-anchor="middle">RLY_IN</text></g>
  <g><rect class="diagram-net" x="1744" y="847" width="76" height="26" rx="13" /><text class="diagram-small" x="1782" y="864" text-anchor="middle">BZ_GPIO</text></g>
  <g><rect class="diagram-net" x="2060" y="847" width="52" height="26" rx="13" /><text class="diagram-small" x="2086" y="864" text-anchor="middle">TAMP</text></g>
  <g><rect class="diagram-net" x="1744" y="887" width="76" height="26" rx="13" /><text class="diagram-small" x="1782" y="904" text-anchor="middle">SENSE12</text></g>
  <g><rect class="diagram-net" x="1768" y="1287" width="52" height="26" rx="13" /><text class="diagram-small" x="1794" y="1304" text-anchor="middle">BOOT</text></g>
  <g><rect class="diagram-net" x="2060" y="1447" width="52" height="26" rx="13" /><text class="diagram-small" x="2086" y="1464" text-anchor="middle">RXD0</text></g>
  <g><rect class="diagram-net" x="1768" y="1487" width="52" height="26" rx="13" /><text class="diagram-small" x="1794" y="1504" text-anchor="middle">TXD0</text></g>
  <g><rect class="diagram-net" x="1720" y="1527" width="100" height="26" rx="13" /><text class="diagram-small" x="1770" y="1544" text-anchor="middle">VBAT_SENSE</text></g>
  <g class="diagram-ground" aria-label="Ground"><circle class="diagram-node" cx="2060" cy="1540" r="4" /><line class="diagram-symbol" x1="2060" y1="1540" x2="2060" y2="1556" /><line class="diagram-symbol" x1="2042" y1="1556" x2="2078" y2="1556" /><line class="diagram-symbol" x1="2048" y1="1562" x2="2072" y2="1562" /><line class="diagram-symbol" x1="2054" y1="1568" x2="2066" y2="1568" /></g>
  <g class="diagram-ground" aria-label="Ground"><circle class="diagram-node" cx="1820" cy="1580" r="4" /><line class="diagram-symbol" x1="1820" y1="1580" x2="1820" y2="1596" /><line class="diagram-symbol" x1="1802" y1="1596" x2="1838" y2="1596" /><line class="diagram-symbol" x1="1808" y1="1602" x2="1832" y2="1602" /><line class="diagram-symbol" x1="1814" y1="1608" x2="1826" y2="1608" /></g>
  <g><rect class="diagram-net" x="1902" y="607" width="44" height="26" rx="13" /><text class="diagram-small" x="1924" y="624" text-anchor="middle">3V3</text></g>
  <g><rect class="diagram-net" x="2134" y="607" width="36" height="26" rx="13" /><text class="diagram-small" x="2152" y="624" text-anchor="middle">EN</text></g>
  <g><rect class="diagram-net" x="1822" y="398" width="36" height="26" rx="13" /><text class="diagram-small" x="1840" y="415" text-anchor="middle">EN</text></g>
  <g class="diagram-ground" aria-label="Ground"><circle class="diagram-node" cx="1840" cy="616" r="4" /><line class="diagram-symbol" x1="1840" y1="616" x2="1840" y2="632" /><line class="diagram-symbol" x1="1822" y1="632" x2="1858" y2="632" /><line class="diagram-symbol" x1="1828" y1="638" x2="1852" y2="638" /><line class="diagram-symbol" x1="1834" y1="644" x2="1846" y2="644" /></g>
  <g><rect class="diagram-net" x="1562" y="1327" width="44" height="26" rx="13" /><text class="diagram-small" x="1584" y="1344" text-anchor="middle">3V3</text></g>
  <g><rect class="diagram-net" x="1794" y="1327" width="52" height="26" rx="13" /><text class="diagram-small" x="1820" y="1344" text-anchor="middle">BOOT</text></g>
  <g><rect class="diagram-net" x="1714" y="1540" width="52" height="26" rx="13" /><text class="diagram-small" x="1740" y="1557" text-anchor="middle">BOOT</text></g>
  <g class="diagram-ground" aria-label="Ground"><circle class="diagram-node" cx="1740" cy="1754" r="4" /><line class="diagram-symbol" x1="1740" y1="1754" x2="1740" y2="1770" /><line class="diagram-symbol" x1="1722" y1="1770" x2="1758" y2="1770" /><line class="diagram-symbol" x1="1728" y1="1776" x2="1752" y2="1776" /><line class="diagram-symbol" x1="1734" y1="1782" x2="1746" y2="1782" /></g>
  <g><rect class="diagram-net" x="1774" y="1687" width="52" height="26" rx="13" /><text class="diagram-small" x="1800" y="1704" text-anchor="middle">TXD0</text></g>
  <g><rect class="diagram-net" x="2014" y="1687" width="52" height="26" rx="13" /><text class="diagram-small" x="2040" y="1704" text-anchor="middle">RXD0</text></g>
  <g><rect class="diagram-net" x="1782" y="1727" width="44" height="26" rx="13" /><text class="diagram-small" x="1804" y="1744" text-anchor="middle">3V3</text></g>
  <g class="diagram-ground" aria-label="Ground"><circle class="diagram-node" cx="2014" cy="1740" r="4" /><line class="diagram-symbol" x1="2014" y1="1740" x2="2014" y2="1756" /><line class="diagram-symbol" x1="1996" y1="1756" x2="2032" y2="1756" /><line class="diagram-symbol" x1="2002" y1="1762" x2="2026" y2="1762" /><line class="diagram-symbol" x1="2008" y1="1768" x2="2020" y2="1768" /></g>
  <g><rect class="diagram-net" x="1224" y="1127" width="36" height="26" rx="13" /><text class="diagram-small" x="1242" y="1144" text-anchor="middle">5V</text></g>
  <g class="diagram-ground" aria-label="Ground"><circle class="diagram-node" cx="1460" cy="1140" r="4" /><line class="diagram-symbol" x1="1460" y1="1140" x2="1460" y2="1156" /><line class="diagram-symbol" x1="1442" y1="1156" x2="1478" y2="1156" /><line class="diagram-symbol" x1="1448" y1="1162" x2="1472" y2="1162" /><line class="diagram-symbol" x1="1454" y1="1168" x2="1466" y2="1168" /></g>
  <g><rect class="diagram-net" x="1192" y="1167" width="68" height="26" rx="13" /><text class="diagram-small" x="1226" y="1184" text-anchor="middle">RLY_IN</text></g>
  <g><rect class="diagram-net" x="1460" y="1167" width="84" height="26" rx="13" /><text class="diagram-small" x="1502" y="1184" text-anchor="middle">STRIKE_A</text></g>
  <g><rect class="diagram-net" x="1176" y="1207" width="84" height="26" rx="13" /><text class="diagram-small" x="1218" y="1224" text-anchor="middle">STRIKE_B</text></g>
  <g><rect class="diagram-net" x="1522" y="1127" width="84" height="26" rx="13" /><text class="diagram-small" x="1564" y="1144" text-anchor="middle">STRIKE_A</text></g>
  <g><rect class="diagram-net" x="1794" y="1127" width="84" height="26" rx="13" /><text class="diagram-small" x="1836" y="1144" text-anchor="middle">STRIKE_B</text></g>
  <g><rect class="diagram-net" x="1230" y="1347" width="36" height="26" rx="13" /><text class="diagram-small" x="1248" y="1364" text-anchor="middle">5V</text></g>
  <g><rect class="diagram-net" x="1454" y="1347" width="52" height="26" rx="13" /><text class="diagram-small" x="1480" y="1364" text-anchor="middle">BZ_C</text></g>
  <g><rect class="diagram-net" x="1659" y="1487" width="52" height="26" rx="13" /><text class="diagram-small" x="1685" y="1504" text-anchor="middle">BZ_C</text></g>
  <g><rect class="diagram-net" x="1409" y="1527" width="52" height="26" rx="13" /><text class="diagram-small" x="1435" y="1544" text-anchor="middle">BZ_B</text></g>
  <g class="diagram-ground" aria-label="Ground"><circle class="diagram-node" cx="1659" cy="1580" r="4" /><line class="diagram-symbol" x1="1659" y1="1580" x2="1659" y2="1596" /><line class="diagram-symbol" x1="1641" y1="1596" x2="1677" y2="1596" /><line class="diagram-symbol" x1="1647" y1="1602" x2="1671" y2="1602" /><line class="diagram-symbol" x1="1653" y1="1608" x2="1665" y2="1608" /></g>
  <g><rect class="diagram-net" x="1630" y="1867" width="76" height="26" rx="13" /><text class="diagram-small" x="1668" y="1884" text-anchor="middle">BZ_GPIO</text></g>
  <g><rect class="diagram-net" x="1894" y="1867" width="52" height="26" rx="13" /><text class="diagram-small" x="1920" y="1884" text-anchor="middle">BZ_B</text></g>
  <g><rect class="diagram-net" x="898" y="707" width="68" height="26" rx="13" /><text class="diagram-small" x="932" y="724" text-anchor="middle">VIN12F</text></g>
  <g><rect class="diagram-net" x="1154" y="707" width="68" height="26" rx="13" /><text class="diagram-small" x="1188" y="724" text-anchor="middle">OPTO_A</text></g>
  <g><rect class="diagram-net" x="1172" y="1507" width="68" height="26" rx="13" /><text class="diagram-small" x="1206" y="1524" text-anchor="middle">OPTO_A</text></g>
  <g class="diagram-ground" aria-label="Ground"><circle class="diagram-node" cx="1440" cy="1520" r="4" /><line class="diagram-symbol" x1="1440" y1="1520" x2="1440" y2="1536" /><line class="diagram-symbol" x1="1422" y1="1536" x2="1458" y2="1536" /><line class="diagram-symbol" x1="1428" y1="1542" x2="1452" y2="1542" /><line class="diagram-symbol" x1="1434" y1="1548" x2="1446" y2="1548" /></g>
  <g class="diagram-ground" aria-label="Ground"><circle class="diagram-node" cx="1240" cy="1560" r="4" /><line class="diagram-symbol" x1="1240" y1="1560" x2="1240" y2="1576" /><line class="diagram-symbol" x1="1222" y1="1576" x2="1258" y2="1576" /><line class="diagram-symbol" x1="1228" y1="1582" x2="1252" y2="1582" /><line class="diagram-symbol" x1="1234" y1="1588" x2="1246" y2="1588" /></g>
  <g><rect class="diagram-net" x="1440" y="1547" width="76" height="26" rx="13" /><text class="diagram-small" x="1478" y="1564" text-anchor="middle">SENSE12</text></g>
  <g><rect class="diagram-net" x="1422" y="1727" width="44" height="26" rx="13" /><text class="diagram-small" x="1444" y="1744" text-anchor="middle">3V3</text></g>
  <g><rect class="diagram-net" x="1654" y="1727" width="76" height="26" rx="13" /><text class="diagram-small" x="1692" y="1744" text-anchor="middle">SENSE12</text></g>
  <g><rect class="diagram-net" x="1434" y="1887" width="52" height="26" rx="13" /><text class="diagram-small" x="1460" y="1904" text-anchor="middle">VBAT</text></g>
  <g><rect class="diagram-net" x="1674" y="1887" width="100" height="26" rx="13" /><text class="diagram-small" x="1724" y="1904" text-anchor="middle">VBAT_SENSE</text></g>
  <g><rect class="diagram-net" x="2010" y="1780" width="100" height="26" rx="13" /><text class="diagram-small" x="2060" y="1797" text-anchor="middle">VBAT_SENSE</text></g>
  <g class="diagram-ground" aria-label="Ground"><circle class="diagram-node" cx="2060" cy="1994" r="4" /><line class="diagram-symbol" x1="2060" y1="1994" x2="2060" y2="2010" /><line class="diagram-symbol" x1="2042" y1="2010" x2="2078" y2="2010" /><line class="diagram-symbol" x1="2048" y1="2016" x2="2072" y2="2016" /><line class="diagram-symbol" x1="2054" y1="2022" x2="2066" y2="2022" /></g>
  <g><rect class="diagram-net" x="1990" y="1998" width="100" height="26" rx="13" /><text class="diagram-small" x="2040" y="2015" text-anchor="middle">VBAT_SENSE</text></g>
  <g class="diagram-ground" aria-label="Ground"><circle class="diagram-node" cx="2040" cy="2216" r="4" /><line class="diagram-symbol" x1="2040" y1="2216" x2="2040" y2="2232" /><line class="diagram-symbol" x1="2022" y1="2232" x2="2058" y2="2232" /><line class="diagram-symbol" x1="2028" y1="2238" x2="2052" y2="2238" /><line class="diagram-symbol" x1="2034" y1="2244" x2="2046" y2="2244" /></g>
  <g><rect class="diagram-net" x="1802" y="2287" width="44" height="26" rx="13" /><text class="diagram-small" x="1824" y="2304" text-anchor="middle">3V3</text></g>
  <g><rect class="diagram-net" x="2034" y="2287" width="52" height="26" rx="13" /><text class="diagram-small" x="2060" y="2304" text-anchor="middle">TAMP</text></g>
  <g><rect class="diagram-net" x="2034" y="2360" width="52" height="26" rx="13" /><text class="diagram-small" x="2060" y="2377" text-anchor="middle">TAMP</text></g>
  <g class="diagram-ground" aria-label="Ground"><circle class="diagram-node" cx="2060" cy="2574" r="4" /><line class="diagram-symbol" x1="2060" y1="2574" x2="2060" y2="2590" /><line class="diagram-symbol" x1="2042" y1="2590" x2="2078" y2="2590" /><line class="diagram-symbol" x1="2048" y1="2596" x2="2072" y2="2596" /><line class="diagram-symbol" x1="2054" y1="2602" x2="2066" y2="2602" /></g>
  
  
  
  <g><line class="diagram-symbol" x1="220" y1="264" x2="220" y2="296" /><circle class="diagram-symbol" cx="220" cy="320" r="24" /><line class="diagram-symbol" x1="220" y1="344" x2="220" y2="376" /><text class="diagram-small" x="220" y="312" text-anchor="middle">+</text><text class="diagram-small" x="220" y="336" text-anchor="middle">-</text><text class="diagram-text" x="143" y="320" text-anchor="middle">V1</text><text class="diagram-small" x="301" y="320" text-anchor="middle">12V</text></g>
  <g><rect class="diagram-symbol" x="571" y="266" width="58" height="108" rx="6" /><text class="diagram-small" x="600" y="325" text-anchor="middle">terminal block</text><text class="diagram-text" x="543" y="320" text-anchor="middle">J1</text><text class="diagram-small" x="673" y="320" text-anchor="middle">12V IN</text></g>
  <g><rect class="diagram-symbol" x="446" y="111" width="108" height="58" rx="6" /><text class="diagram-small" x="500" y="145" text-anchor="middle">fuse</text><text class="diagram-text" x="500" y="85" text-anchor="middle">R1</text><text class="diagram-small" x="500" y="195" text-anchor="middle">1A</text></g>
  <g><line class="diagram-symbol" x1="980" y1="264" x2="980" y2="300" /><polygon class="diagram-fill" points="962,300 998,300 980,332" /><line class="diagram-symbol" x1="960" y1="334" x2="1000" y2="334" /><line class="diagram-symbol" x1="980" y1="334" x2="980" y2="376" /><text class="diagram-text" x="903" y="320" text-anchor="middle">D1</text><text class="diagram-small" x="1061" y="320" text-anchor="middle">24V</text></g>
  <g><line class="diagram-symbol" x1="980" y1="464" x2="980" y2="506" /><line class="diagram-symbol" x1="956" y1="506" x2="1004" y2="506" /><line class="diagram-symbol" x1="956" y1="534" x2="1004" y2="534" /><line class="diagram-symbol" x1="980" y1="534" x2="980" y2="576" /><text class="diagram-text" x="903" y="520" text-anchor="middle">C1</text><text class="diagram-small" x="1069" y="520" text-anchor="middle">100uF</text></g>
  <g><rect class="diagram-symbol" x="780" y="680" width="120" height="120" rx="6" /><text class="diagram-small" x="840" y="745" text-anchor="middle">buck converter</text><text class="diagram-text" x="840" y="654" text-anchor="middle">V2</text><text class="diagram-small" x="840" y="826" text-anchor="middle">LM2596-5.0</text><text class="diagram-small" x="780" y="692" text-anchor="middle">1</text><text class="diagram-small" x="900" y="692" text-anchor="middle">2</text><text class="diagram-small" x="780" y="732" text-anchor="middle">3</text><text class="diagram-small" x="900" y="732" text-anchor="middle">4</text><text class="diagram-small" x="780" y="772" text-anchor="middle">5</text></g>
  <g><path class="diagram-symbol" d="M 1306 220 H 1320 C 1324 199, 1340 199, 1344 220 C 1348 199, 1364 199, 1368 220 C 1372 199, 1388 199, 1392 220 H 1414" /><text class="diagram-text" x="1360" y="165" text-anchor="middle">L1</text><text class="diagram-small" x="1360" y="275" text-anchor="middle">33uH</text></g>
  <g><line class="diagram-symbol" x1="1360" y1="464" x2="1360" y2="500" /><polygon class="diagram-fill" points="1342,500 1378,500 1360,532" /><line class="diagram-symbol" x1="1340" y1="534" x2="1380" y2="534" /><line class="diagram-symbol" x1="1360" y1="534" x2="1360" y2="576" /><text class="diagram-text" x="1283" y="520" text-anchor="middle">D2</text><text class="diagram-small" x="1453" y="520" text-anchor="middle">1N5819</text></g>
  <g><line class="diagram-symbol" x1="1340" y1="664" x2="1340" y2="706" /><line class="diagram-symbol" x1="1316" y1="706" x2="1364" y2="706" /><line class="diagram-symbol" x1="1316" y1="734" x2="1364" y2="734" /><line class="diagram-symbol" x1="1340" y1="734" x2="1340" y2="776" /><text class="diagram-text" x="1263" y="720" text-anchor="middle">C2</text><text class="diagram-small" x="1429" y="720" text-anchor="middle">100uF</text></g>
  <g><rect class="diagram-symbol" x="1160" y="880" width="120" height="120" rx="6" /><text class="diagram-small" x="1220" y="945" text-anchor="middle">charge controller</text><text class="diagram-text" x="1220" y="854" text-anchor="middle">V4</text><text class="diagram-small" x="1220" y="1026" text-anchor="middle">TP4056</text><text class="diagram-small" x="1160" y="892" text-anchor="middle">1</text><text class="diagram-small" x="1280" y="892" text-anchor="middle">2</text><text class="diagram-small" x="1160" y="932" text-anchor="middle">3</text><text class="diagram-small" x="1280" y="932" text-anchor="middle">4</text><text class="diagram-small" x="1160" y="972" text-anchor="middle">5</text><text class="diagram-small" x="1280" y="972" text-anchor="middle">6</text></g>
  <g><rect class="diagram-symbol" x="1711" y="266" width="58" height="108" rx="6" /><text class="diagram-small" x="1740" y="325" text-anchor="middle">battery connector</text><text class="diagram-text" x="1683" y="320" text-anchor="middle">J4</text><text class="diagram-small" x="1813" y="320" text-anchor="middle">JST-PH</text></g>
  <g><line class="diagram-symbol" x1="1371" y1="920" x2="1400" y2="920" /><polygon class="diagram-fill" points="1400,874 1400,966 1432,920" /><line class="diagram-symbol" x1="1434" y1="872" x2="1434" y2="968" /><line class="diagram-symbol" x1="1434" y1="920" x2="1469" y2="920" /><text class="diagram-text" x="1420" y="838" text-anchor="middle">D3</text><text class="diagram-small" x="1420" y="1002" text-anchor="middle">1N5819</text></g>
  <g><line class="diagram-symbol" x1="1591" y1="520" x2="1620" y2="520" /><polygon class="diagram-fill" points="1620,474 1620,566 1652,520" /><line class="diagram-symbol" x1="1654" y1="472" x2="1654" y2="568" /><line class="diagram-symbol" x1="1654" y1="520" x2="1689" y2="520" /><text class="diagram-text" x="1640" y="438" text-anchor="middle">D4</text><text class="diagram-small" x="1640" y="602" text-anchor="middle">1N5819</text></g>
  <g><line class="diagram-symbol" x1="1720" y1="664" x2="1720" y2="706" /><line class="diagram-symbol" x1="1696" y1="706" x2="1744" y2="706" /><line class="diagram-symbol" x1="1696" y1="734" x2="1744" y2="734" /><line class="diagram-symbol" x1="1720" y1="734" x2="1720" y2="776" /><text class="diagram-text" x="1643" y="720" text-anchor="middle">C3</text><text class="diagram-small" x="1805" y="720" text-anchor="middle">10uF</text></g>
  <g><rect class="diagram-symbol" x="1586" y="871" width="108" height="58" rx="6" /><text class="diagram-small" x="1640" y="905" text-anchor="middle">regulator</text><text class="diagram-text" x="1640" y="845" text-anchor="middle">V3</text><text class="diagram-small" x="1640" y="955" text-anchor="middle">3.3V</text><text class="diagram-small" x="1586" y="872" text-anchor="middle">1</text><text class="diagram-small" x="1694" y="872" text-anchor="middle">2</text><text class="diagram-small" x="1586" y="912" text-anchor="middle">3</text></g>
  <g><line class="diagram-symbol" x1="2040" y1="184" x2="2040" y2="226" /><line class="diagram-symbol" x1="2016" y1="226" x2="2064" y2="226" /><line class="diagram-symbol" x1="2016" y1="254" x2="2064" y2="254" /><line class="diagram-symbol" x1="2040" y1="254" x2="2040" y2="296" /><text class="diagram-text" x="1963" y="240" text-anchor="middle">C4</text><text class="diagram-small" x="2125" y="240" text-anchor="middle">10uF</text></g>
  <g><line class="diagram-symbol" x1="2040" y1="384" x2="2040" y2="426" /><line class="diagram-symbol" x1="2016" y1="426" x2="2064" y2="426" /><line class="diagram-symbol" x1="2016" y1="454" x2="2064" y2="454" /><line class="diagram-symbol" x1="2040" y1="454" x2="2040" y2="496" /><text class="diagram-text" x="1963" y="440" text-anchor="middle">C5</text><text class="diagram-small" x="2129" y="440" text-anchor="middle">100nF</text></g>
  <g><rect class="diagram-symbol" x="1860" y="760" width="160" height="840" rx="6" /><text class="diagram-small" x="1940" y="1185" text-anchor="middle">esp32 s3 wroom</text><text class="diagram-text" x="1940" y="734" text-anchor="middle">U1</text><text class="diagram-small" x="1940" y="1626" text-anchor="middle">ESP32-S3-WROOM-1</text><text class="diagram-small" x="1860" y="772" text-anchor="middle">1</text><text class="diagram-small" x="2020" y="772" text-anchor="middle">2</text><text class="diagram-small" x="1860" y="812" text-anchor="middle">3</text><text class="diagram-small" x="2020" y="812" text-anchor="middle">4</text><text class="diagram-small" x="1860" y="852" text-anchor="middle">5</text><text class="diagram-small" x="2020" y="852" text-anchor="middle">6</text><text class="diagram-small" x="1860" y="892" text-anchor="middle">7</text><text class="diagram-small" x="2020" y="892" text-anchor="middle">8</text><text class="diagram-small" x="1860" y="932" text-anchor="middle">9</text><text class="diagram-small" x="2020" y="932" text-anchor="middle">10</text><text class="diagram-small" x="1860" y="972" text-anchor="middle">11</text><text class="diagram-small" x="2020" y="972" text-anchor="middle">12</text><text class="diagram-small" x="1860" y="1012" text-anchor="middle">13</text><text class="diagram-small" x="2020" y="1012" text-anchor="middle">14</text><text class="diagram-small" x="1860" y="1052" text-anchor="middle">15</text><text class="diagram-small" x="2020" y="1052" text-anchor="middle">16</text><text class="diagram-small" x="1860" y="1092" text-anchor="middle">17</text><text class="diagram-small" x="2020" y="1092" text-anchor="middle">18</text><text class="diagram-small" x="1860" y="1132" text-anchor="middle">19</text><text class="diagram-small" x="2020" y="1132" text-anchor="middle">20</text><text class="diagram-small" x="1860" y="1172" text-anchor="middle">21</text><text class="diagram-small" x="2020" y="1172" text-anchor="middle">22</text><text class="diagram-small" x="1860" y="1212" text-anchor="middle">23</text><text class="diagram-small" x="2020" y="1212" text-anchor="middle">24</text><text class="diagram-small" x="1860" y="1252" text-anchor="middle">25</text><text class="diagram-small" x="2020" y="1252" text-anchor="middle">26</text><text class="diagram-small" x="1860" y="1292" text-anchor="middle">27</text><text class="diagram-small" x="2020" y="1292" text-anchor="middle">28</text><text class="diagram-small" x="1860" y="1332" text-anchor="middle">29</text><text class="diagram-small" x="2020" y="1332" text-anchor="middle">30</text><text class="diagram-small" x="1860" y="1372" text-anchor="middle">31</text><text class="diagram-small" x="2020" y="1372" text-anchor="middle">32</text><text class="diagram-small" x="1860" y="1412" text-anchor="middle">33</text><text class="diagram-small" x="2020" y="1412" text-anchor="middle">34</text><text class="diagram-small" x="1860" y="1452" text-anchor="middle">35</text><text class="diagram-small" x="2020" y="1452" text-anchor="middle">36</text><text class="diagram-small" x="1860" y="1492" text-anchor="middle">37</text><text class="diagram-small" x="2020" y="1492" text-anchor="middle">38</text><text class="diagram-small" x="1860" y="1532" text-anchor="middle">39</text><text class="diagram-small" x="2020" y="1532" text-anchor="middle">40</text><text class="diagram-small" x="1860" y="1572" text-anchor="middle">41</text></g>
  <g><line class="diagram-symbol" x1="1986" y1="620" x2="2004" y2="620" /><polyline class="diagram-symbol" points="2004,620 2016,607 2028,633 2040,607 2052,633 2064,620 2076,620" /><line class="diagram-symbol" x1="2076" y1="620" x2="2094" y2="620" /><text class="diagram-text" x="2040" y="565" text-anchor="middle">R2</text><text class="diagram-small" x="2040" y="675" text-anchor="middle">10k</text></g>
  <g><line class="diagram-symbol" x1="1840" y1="464" x2="1840" y2="506" /><line class="diagram-symbol" x1="1816" y1="506" x2="1864" y2="506" /><line class="diagram-symbol" x1="1816" y1="534" x2="1864" y2="534" /><line class="diagram-symbol" x1="1840" y1="534" x2="1840" y2="576" /><text class="diagram-text" x="1763" y="520" text-anchor="middle">C6</text><text class="diagram-small" x="1921" y="520" text-anchor="middle">1uF</text></g>
  <g><line class="diagram-symbol" x1="1646" y1="1340" x2="1664" y2="1340" /><polyline class="diagram-symbol" points="1664,1340 1676,1327 1688,1353 1700,1327 1712,1353 1724,1340 1736,1340" /><line class="diagram-symbol" x1="1736" y1="1340" x2="1754" y2="1340" /><text class="diagram-text" x="1700" y="1285" text-anchor="middle">R3</text><text class="diagram-small" x="1700" y="1395" text-anchor="middle">10k</text></g>
  <g><rect class="diagram-symbol" x="1711" y="1606" width="58" height="108" rx="6" /><text class="diagram-small" x="1740" y="1665" text-anchor="middle">pushbutton</text><text class="diagram-text" x="1683" y="1660" text-anchor="middle">R4</text><text class="diagram-small" x="1805" y="1660" text-anchor="middle">BOOT</text></g>
  <g><rect class="diagram-symbol" x="1866" y="1691" width="108" height="58" rx="6" /><text class="diagram-small" x="1920" y="1725" text-anchor="middle">pin header</text><text class="diagram-text" x="1920" y="1665" text-anchor="middle">J3</text><text class="diagram-small" x="1920" y="1775" text-anchor="middle">PROG UART</text><text class="diagram-small" x="1866" y="1692" text-anchor="middle">1</text><text class="diagram-small" x="1974" y="1692" text-anchor="middle">2</text><text class="diagram-small" x="1866" y="1732" text-anchor="middle">3</text><text class="diagram-small" x="1974" y="1732" text-anchor="middle">4</text></g>
  <g><rect class="diagram-symbol" x="1300" y="1120" width="120" height="120" rx="6" /><text class="diagram-small" x="1360" y="1185" text-anchor="middle">relay module</text><text class="diagram-text" x="1360" y="1094" text-anchor="middle">U2</text><text class="diagram-small" x="1360" y="1266" text-anchor="middle">5V relay</text><text class="diagram-small" x="1300" y="1132" text-anchor="middle">1</text><text class="diagram-small" x="1420" y="1132" text-anchor="middle">2</text><text class="diagram-small" x="1300" y="1172" text-anchor="middle">3</text><text class="diagram-small" x="1420" y="1172" text-anchor="middle">4</text><text class="diagram-small" x="1300" y="1212" text-anchor="middle">5</text><text class="diagram-small" x="1420" y="1212" text-anchor="middle">6</text></g>
  <g><rect class="diagram-symbol" x="1646" y="1111" width="108" height="58" rx="6" /><text class="diagram-small" x="1700" y="1145" text-anchor="middle">terminal block</text><text class="diagram-text" x="1700" y="1085" text-anchor="middle">J2</text><text class="diagram-small" x="1700" y="1195" text-anchor="middle">STRIKE</text></g>
  <g><rect class="diagram-symbol" x="1306" y="1331" width="108" height="58" rx="6" /><text class="diagram-small" x="1360" y="1365" text-anchor="middle">buzzer</text><text class="diagram-text" x="1360" y="1305" text-anchor="middle">R5</text><text class="diagram-small" x="1360" y="1415" text-anchor="middle">Active 5V</text></g>
  <g><circle class="diagram-symbol" cx="1560" cy="1540" r="38" /><line class="diagram-symbol" x1="1501" y1="1540" x2="1544" y2="1540" /><line class="diagram-symbol" x1="1544" y1="1512" x2="1544" y2="1568" /><line class="diagram-symbol" x1="1544" y1="1522" x2="1570" y2="1518" /><line class="diagram-symbol" x1="1570" y1="1518" x2="1619" y2="1500" /><line class="diagram-symbol" x1="1544" y1="1558" x2="1570" y2="1562" /><line class="diagram-symbol" x1="1570" y1="1562" x2="1619" y2="1580" /><polygon points="1598,1572 1614,1580 1598,1588" fill="#94a3b5" /><text class="diagram-small" x="1609" y="1492" text-anchor="middle">C</text><text class="diagram-small" x="1511" y="1532" text-anchor="middle">B</text><text class="diagram-small" x="1609" y="1598" text-anchor="middle">E</text><text class="diagram-text" x="1560" y="1464" text-anchor="middle">Q1</text><text class="diagram-small" x="1560" y="1616" text-anchor="middle">2N2222</text></g>
  <g><line class="diagram-symbol" x1="1746" y1="1880" x2="1764" y2="1880" /><polyline class="diagram-symbol" points="1764,1880 1776,1867 1788,1893 1800,1867 1812,1893 1824,1880 1836,1880" /><line class="diagram-symbol" x1="1836" y1="1880" x2="1854" y2="1880" /><text class="diagram-text" x="1800" y="1825" text-anchor="middle">R6</text><text class="diagram-small" x="1800" y="1935" text-anchor="middle">1k</text></g>
  <g><line class="diagram-symbol" x1="1006" y1="720" x2="1024" y2="720" /><polyline class="diagram-symbol" points="1024,720 1036,707 1048,733 1060,707 1072,733 1084,720 1096,720" /><line class="diagram-symbol" x1="1096" y1="720" x2="1114" y2="720" /><text class="diagram-text" x="1060" y="665" text-anchor="middle">R7</text><text class="diagram-small" x="1060" y="775" text-anchor="middle">2.2k</text></g>
  <g><rect class="diagram-symbol" x="1280" y="1500" width="120" height="80" rx="6" /><text class="diagram-small" x="1340" y="1545" text-anchor="middle">optocoupler</text><text class="diagram-text" x="1340" y="1474" text-anchor="middle">X1</text><text class="diagram-small" x="1340" y="1606" text-anchor="middle">PC817</text><text class="diagram-small" x="1280" y="1512" text-anchor="middle">1</text><text class="diagram-small" x="1400" y="1512" text-anchor="middle">2</text><text class="diagram-small" x="1280" y="1552" text-anchor="middle">3</text><text class="diagram-small" x="1400" y="1552" text-anchor="middle">4</text></g>
  <g><line class="diagram-symbol" x1="1506" y1="1740" x2="1524" y2="1740" /><polyline class="diagram-symbol" points="1524,1740 1536,1727 1548,1753 1560,1727 1572,1753 1584,1740 1596,1740" /><line class="diagram-symbol" x1="1596" y1="1740" x2="1614" y2="1740" /><text class="diagram-text" x="1560" y="1685" text-anchor="middle">R8</text><text class="diagram-small" x="1560" y="1795" text-anchor="middle">10k</text></g>
  <g><line class="diagram-symbol" x1="1526" y1="1900" x2="1544" y2="1900" /><polyline class="diagram-symbol" points="1544,1900 1556,1887 1568,1913 1580,1887 1592,1913 1604,1900 1616,1900" /><line class="diagram-symbol" x1="1616" y1="1900" x2="1634" y2="1900" /><text class="diagram-text" x="1580" y="1845" text-anchor="middle">R9</text><text class="diagram-small" x="1580" y="1955" text-anchor="middle">100k</text></g>
  <g><polyline class="diagram-symbol" points="2060,1846 2060,1864 2042,1874 2078,1890 2042,1906 2078,1922 2060,1936 2060,1954" /><text class="diagram-text" x="1999" y="1900" text-anchor="middle">R10</text><text class="diagram-small" x="2125" y="1900" text-anchor="middle">100k</text></g>
  <g><line class="diagram-symbol" x1="2040" y1="2064" x2="2040" y2="2106" /><line class="diagram-symbol" x1="2016" y1="2106" x2="2064" y2="2106" /><line class="diagram-symbol" x1="2016" y1="2134" x2="2064" y2="2134" /><line class="diagram-symbol" x1="2040" y1="2134" x2="2040" y2="2176" /><text class="diagram-text" x="1963" y="2120" text-anchor="middle">C7</text><text class="diagram-small" x="2129" y="2120" text-anchor="middle">100nF</text></g>
  <g><line class="diagram-symbol" x1="1886" y1="2300" x2="1904" y2="2300" /><polyline class="diagram-symbol" points="1904,2300 1916,2287 1928,2313 1940,2287 1952,2313 1964,2300 1976,2300" /><line class="diagram-symbol" x1="1976" y1="2300" x2="1994" y2="2300" /><text class="diagram-text" x="1940" y="2245" text-anchor="middle">R11</text><text class="diagram-small" x="1940" y="2355" text-anchor="middle">10k</text></g>
  <g><rect class="diagram-symbol" x="2031" y="2426" width="58" height="108" rx="6" /><text class="diagram-small" x="2060" y="2485" text-anchor="middle">pushbutton</text><text class="diagram-text" x="1999" y="2480" text-anchor="middle">R12</text><text class="diagram-small" x="2145" y="2480" text-anchor="middle">TAMPER SW</text></g>
</svg>